<svg width="24" height="24" viewBox="0 0 24 24" fill="none" xmlns="http://www.w3.org/2000/svg">
<g id="Actions/attach_file">
<path id="attach_file" fill-rule="evenodd" clip-rule="evenodd" d="M15.2308 6.46158V17.077C15.2308 19.117 13.5785 20.7693 11.5385 20.7693C9.49847 20.7693 7.84616 19.117 7.84616 17.077V5.5385C7.84616 4.26465 8.88001 3.23081 10.1539 3.23081C11.4277 3.23081 12.4615 4.26465 12.4615 5.5385V15.2308C12.4615 15.7385 12.0462 16.1539 11.5385 16.1539C11.0308 16.1539 10.6154 15.7385 10.6154 15.2308V6.46158H9.23078V15.2308C9.23078 16.5047 10.2646 17.5385 11.5385 17.5385C12.8123 17.5385 13.8462 16.5047 13.8462 15.2308V5.5385C13.8462 3.4985 12.1939 1.84619 10.1539 1.84619C8.11386 1.84619 6.46155 3.4985 6.46155 5.5385V17.077C6.46155 19.8831 8.73232 22.1539 11.5385 22.1539C14.3446 22.1539 16.6154 19.8831 16.6154 17.077V6.46158H15.2308Z" fill="#333D45"/>
</g>
</svg>
