<svg width="24" height="24" viewBox="0 0 24 24" fill="none" xmlns="http://www.w3.org/2000/svg">
<g id="Misc/business">
<path id="building" fill-rule="evenodd" clip-rule="evenodd" d="M12.0001 7.38457V3.69226H2.76929V20.3076H21.2308V7.38457H12.0001ZM6.46159 18.4615H4.61544V16.6153H6.46159V18.4615ZM6.46159 14.7692H4.61544V12.923H6.46159V14.7692ZM6.46159 11.0769H4.61544V9.23072H6.46159V11.0769ZM6.46159 7.38457H4.61544V5.53841H6.46159V7.38457ZM10.1539 18.4615H8.30775V16.6153H10.1539V18.4615ZM10.1539 14.7692H8.30775V12.923H10.1539V14.7692ZM10.1539 11.0769H8.30775V9.23072H10.1539V11.0769ZM10.1539 7.38457H8.30775V5.53841H10.1539V7.38457ZM19.3847 18.4615H12.0001V16.6153H13.8462V14.7692H12.0001V12.923H13.8462V11.0769H12.0001V9.23072H19.3847V18.4615ZM17.5385 11.0769H15.6924V12.923H17.5385V11.0769ZM17.5385 14.7692H15.6924V16.6153H17.5385V14.7692Z" fill="#333D45"/>
</g>
</svg>
