<svg width="24" height="24" viewBox="0 0 24 24" fill="none" xmlns="http://www.w3.org/2000/svg">
<g id="Status/dashed_circle">
<path id="dashed_circle" fill-rule="evenodd" clip-rule="evenodd" d="M14.5066 20.8864C13.7096 21.1108 12.8688 21.2308 12 21.2308C11.1312 21.2308 10.2904 21.1108 9.49336 20.8864L9.99362 19.1093C10.6295 19.2883 11.302 19.3847 12 19.3847C12.698 19.3847 13.3705 19.2883 14.0064 19.1093L14.5066 20.8864ZM7.48889 20.0553L8.39242 18.4454C7.20575 17.7794 6.22065 16.7943 5.55466 15.6076L3.94472 16.5112C4.77678 17.9938 6.0063 19.2233 7.48889 20.0553ZM3.11363 14.5067L4.89071 14.0064C4.71172 13.3706 4.61538 12.6981 4.61538 12.0001C4.61538 11.302 4.71172 10.6295 4.89071 9.99369L3.11363 9.49342C2.88925 10.2905 2.76923 11.1313 2.76923 12.0001C2.76923 12.8689 2.88925 13.7096 3.11363 14.5067ZM3.94472 7.48895L5.55466 8.39248C6.22065 7.20581 7.20575 6.22071 8.39242 5.55472L7.48889 3.94478C6.0063 4.77684 4.77678 6.00636 3.94472 7.48895ZM9.49336 3.11369C10.2904 2.88931 11.1312 2.76929 12 2.76929C12.8688 2.76929 13.7096 2.88931 14.5066 3.11369L14.0064 4.89077C13.3705 4.71178 12.698 4.61544 12 4.61544C11.302 4.61544 10.6295 4.71178 9.99363 4.89077L9.49336 3.11369ZM16.5111 3.94478L15.6076 5.55472C16.7942 6.22071 17.7793 7.20581 18.4453 8.39248L20.0553 7.48895C19.2232 6.00636 17.9937 4.77684 16.5111 3.94478ZM20.8864 9.49343L19.1093 9.99369C19.2883 10.6295 19.3846 11.302 19.3846 12.0001C19.3846 12.6981 19.2883 13.3706 19.1093 14.0064L20.8864 14.5067C21.1107 13.7096 21.2308 12.8689 21.2308 12.0001C21.2308 11.1313 21.1107 10.2905 20.8864 9.49343ZM20.0553 16.5112L18.4453 15.6076C17.7793 16.7943 16.7942 17.7794 15.6076 18.4454L16.5111 20.0553C17.9937 19.2233 19.2232 17.9938 20.0553 16.5112Z" fill="#333D45"/>
</g>
</svg>
