<svg width="24" height="24" viewBox="0 0 24 24" fill="none" xmlns="http://www.w3.org/2000/svg">
<g id="Status/error_outline">
<path id="error_outline" fill-rule="evenodd" clip-rule="evenodd" d="M11 15H13V17H11V15ZM11 7H13V13H11V7ZM11.9908 2.76923C6.89538 2.76923 2.76923 6.90461 2.76923 12C2.76923 17.0954 6.89538 21.2308 11.9908 21.2308C17.0954 21.2308 21.2308 17.0954 21.2308 12C21.2308 6.90461 17.0954 2.76923 11.9908 2.76923ZM12 19.3846C7.91999 19.3846 4.61538 16.08 4.61538 12C4.61538 7.91999 7.91999 4.61538 12 4.61538C16.08 4.61538 19.3846 7.91999 19.3846 12C19.3846 16.08 16.08 19.3846 12 19.3846Z" fill="#333D45"/>
</g>
</svg>
