<svg width="24" height="24" viewBox="0 0 24 24" fill="none" xmlns="http://www.w3.org/2000/svg">
<g id="Misc/event_available">
<path id="event_available" fill-rule="evenodd" clip-rule="evenodd" d="M16.1816 12.0554L15.2032 11.0769L10.6985 15.5815L8.74162 13.6246L7.76316 14.6031L10.6985 17.5385L16.1816 12.0554ZM18.4616 4.61538H17.5385V2.76923H15.6924V4.61538H8.30777V2.76923H6.46161V4.61538H5.53854C4.51392 4.61538 3.70161 5.44615 3.70161 6.46153L3.69238 19.3846C3.69238 20.4 4.51392 21.2308 5.53854 21.2308H18.4616C19.477 21.2308 20.3078 20.4 20.3078 19.3846V6.46153C20.3078 5.44615 19.477 4.61538 18.4616 4.61538ZM18.4616 19.3846H5.53854V9.23076H18.4616V19.3846Z" fill="#333D45"/>
</g>
</svg>
