<svg width="24" height="24" viewBox="0 0 24 24" fill="none" xmlns="http://www.w3.org/2000/svg">
<g id="Status/help">
<path id="Mask" fill-rule="evenodd" clip-rule="evenodd" d="M12 2.76929C6.90461 2.76929 2.76923 6.90467 2.76923 12.0001C2.76923 17.0954 6.90461 21.2308 12 21.2308C17.0954 21.2308 21.2308 17.0954 21.2308 12.0001C21.2308 6.90467 17.0954 2.76929 12 2.76929ZM12.9231 18.4616H11.0769V16.6154H12.9231V18.4616ZM14.8338 11.3077L14.0031 12.157C13.3385 12.8308 12.9231 13.3847 12.9231 14.7693H11.0769V14.3077C11.0769 13.2924 11.4923 12.3693 12.1569 11.6954L13.3015 10.5324C13.6431 10.2001 13.8462 9.73852 13.8462 9.23083C13.8462 8.21544 13.0154 7.38467 12 7.38467C10.9846 7.38467 10.1538 8.21544 10.1538 9.23083H8.30769C8.30769 7.19083 9.96 5.53852 12 5.53852C14.04 5.53852 15.6923 7.19083 15.6923 9.23083C15.6923 10.0431 15.36 10.7816 14.8338 11.3077Z" fill="#333D45"/>
</g>
</svg>
