<svg width="24" height="24" viewBox="0 0 24 24" fill="none" xmlns="http://www.w3.org/2000/svg">
<g id="Status/help_outline">
<path id="help_outline" fill-rule="evenodd" clip-rule="evenodd" d="M11.0769 17.5385H12.9231V15.6924H11.0769V17.5385ZM12 2.76929C6.90461 2.76929 2.76923 6.90467 2.76923 12.0001C2.76923 17.0954 6.90461 21.2308 12 21.2308C17.0954 21.2308 21.2308 17.0954 21.2308 12.0001C21.2308 6.90467 17.0954 2.76929 12 2.76929ZM12 19.3847C7.92923 19.3847 4.61538 16.0708 4.61538 12.0001C4.61538 7.92929 7.92923 4.61544 12 4.61544C16.0708 4.61544 19.3846 7.92929 19.3846 12.0001C19.3846 16.0708 16.0708 19.3847 12 19.3847ZM12 6.46159C9.96 6.46159 8.30769 8.1139 8.30769 10.1539H10.1538C10.1538 9.13852 10.9846 8.30775 12 8.30775C13.0154 8.30775 13.8462 9.13852 13.8462 10.1539C13.8462 12.0001 11.0769 11.7693 11.0769 14.7693H12.9231C12.9231 12.6924 15.6923 12.4616 15.6923 10.1539C15.6923 8.1139 14.04 6.46159 12 6.46159Z" fill="#333D45"/>
</g>
</svg>
