<svg width="24" height="24" viewBox="0 0 24 24" fill="none" xmlns="http://www.w3.org/2000/svg">
<g id="Social/instagram">
<path id="instagram" fill-rule="evenodd" clip-rule="evenodd" d="M11.9999 2.31894C15.1532 2.31894 15.5263 2.33113 16.7718 2.38785C17.923 2.44035 18.5483 2.63253 18.9646 2.79425C19.5158 3.00847 19.9091 3.26441 20.3226 3.67738C20.736 4.09082 20.9919 4.4841 21.2057 5.03535C21.3674 5.4516 21.5596 6.07691 21.6121 7.22816C21.6688 8.47316 21.681 8.84675 21.681 12C21.681 15.1533 21.6688 15.5264 21.6121 16.7719C21.5596 17.9232 21.3674 18.5485 21.2057 18.9647C20.9915 19.516 20.7355 19.9093 20.3226 20.3227C19.9091 20.7361 19.5158 20.9921 18.9646 21.2058C18.5483 21.3675 17.923 21.5597 16.7718 21.6122C15.5268 21.6689 15.1532 21.6811 11.9999 21.6811C8.84663 21.6811 8.47304 21.6689 7.22804 21.6122C6.07679 21.5597 5.45147 21.3675 5.03522 21.2058C4.48397 20.9916 4.09069 20.7357 3.67726 20.3227C3.26382 19.9093 3.00788 19.516 2.79413 18.9647C2.63241 18.5485 2.44022 17.9232 2.38772 16.7719C2.33101 15.5269 2.31882 15.1533 2.31882 12C2.31882 8.84675 2.33101 8.47363 2.38772 7.22816C2.44022 6.07691 2.63241 5.4516 2.79413 5.03535C3.00835 4.4841 3.26429 4.09082 3.67726 3.67738C4.09069 3.26394 4.48397 3.008 5.03522 2.79425C5.45147 2.63253 6.07679 2.44035 7.22804 2.38785C8.4735 2.33113 8.84663 2.31894 11.9999 2.31894ZM11.9999 0.191284C8.79272 0.191284 8.39054 0.204878 7.131 0.262534C5.87429 0.319722 5.01554 0.519409 4.2646 0.81144C3.48788 1.11332 2.82929 1.51691 2.17304 2.17363C1.51679 2.82988 1.11272 3.48847 0.810849 4.26472C0.518818 5.01566 0.319131 5.87441 0.261943 7.13113C0.204756 8.39066 0.191162 8.79285 0.191162 12C0.191162 15.2072 0.204756 15.6094 0.262412 16.8689C0.3196 18.1257 0.519287 18.9844 0.811318 19.7353C1.11319 20.5121 1.51679 21.1707 2.17351 21.8269C2.83022 22.4836 3.48835 22.8872 4.26507 23.1891C5.01601 23.4811 5.87475 23.6808 7.13147 23.738C8.391 23.7957 8.79319 23.8093 12.0004 23.8093C15.2076 23.8093 15.6098 23.7957 16.8693 23.738C18.126 23.6808 18.9848 23.4811 19.7357 23.1891C20.5124 22.8872 21.171 22.4836 21.8273 21.8269C22.484 21.1702 22.8876 20.5121 23.1894 19.7353C23.4815 18.9844 23.6812 18.1257 23.7383 16.8689C23.796 15.6094 23.8096 15.2072 23.8096 12C23.8096 8.79285 23.796 8.39066 23.7383 7.13113C23.6812 5.87441 23.4815 5.01566 23.1894 4.26472C22.8876 3.488 22.484 2.82941 21.8273 2.17316C21.1705 1.51644 20.5124 1.11285 19.7357 0.810972C18.9848 0.51894 18.126 0.319253 16.8693 0.262065C15.6093 0.204878 15.2071 0.191284 11.9999 0.191284ZM11.9998 5.93622C8.65057 5.93622 5.93604 8.65122 5.93604 12C5.93604 15.3487 8.65057 18.0637 11.9998 18.0637C15.349 18.0637 18.0635 15.3492 18.0635 12C18.0635 8.65075 15.349 5.93622 11.9998 5.93622ZM11.9998 15.9361C9.82572 15.9361 8.06369 14.1736 8.06369 12C8.06369 9.82637 9.82619 8.06387 11.9998 8.06387C14.1738 8.06387 15.9359 9.82637 15.9359 12C15.9359 14.1736 14.1738 15.9361 11.9998 15.9361ZM19.7208 5.69627C19.7208 6.47887 19.0863 7.1133 18.3037 7.1133C17.5211 7.1133 16.8867 6.47887 16.8867 5.69627C16.8867 4.91366 17.5211 4.27924 18.3037 4.27924C19.0863 4.27924 19.7208 4.91366 19.7208 5.69627Z" fill="#333D45"/>
</g>
</svg>
