<svg width="24" height="24" viewBox="0 0 24 24" fill="none" xmlns="http://www.w3.org/2000/svg">
<g id="Social/linkedin">
<path id="linkedin" d="M22.3709 23.9962C23.2764 23.9568 24 23.2045 24 22.2946L23.9794 1.44449C23.8575 0.645308 23.1245 -0.0037969 22.2153 -4.48506e-05L1.70786 0.00933527C0.73301 0.0205914 0 0.771001 0 1.74466C0 8.58277 0 15.4209 0.00187471 22.2609C0.00187471 22.4297 0.0262459 22.6061 0.0749883 22.7674C0.299953 23.5403 0.944852 23.9999 1.79784 23.9999L22.3709 23.9962ZM7.14263 20.2498C7.14263 20.4317 7.09014 20.503 6.9008 20.503C5.85284 20.4974 4.80487 20.4955 3.75691 20.503C3.5507 20.5049 3.51133 20.4205 3.5132 20.2348C3.51883 18.4 3.51695 16.5671 3.51695 14.7324C3.51695 12.9051 3.5207 11.0798 3.5132 9.25251C3.5132 9.04239 3.56194 8.96923 3.78503 8.97111C4.818 8.98236 5.85096 8.98049 6.88392 8.97298C7.07514 8.97111 7.14451 9.01988 7.14451 9.22249C7.13701 12.8976 7.13701 16.5746 7.14263 20.2498ZM5.32417 7.43652C4.16747 7.43652 3.24699 6.51726 3.24512 5.36163C3.24512 4.19099 4.1656 3.26611 5.32979 3.26799C6.48649 3.26799 7.41259 4.20413 7.41259 5.36914C7.41072 6.51727 6.48274 7.43652 5.32417 7.43652ZM20.4905 20.216C20.4924 20.4505 20.4137 20.5068 20.1962 20.503C19.1858 20.4936 18.1753 20.4936 17.1648 20.503C16.938 20.5049 16.8686 20.4336 16.8686 20.2066C16.8761 18.3193 16.8817 16.4321 16.8667 14.5448C16.863 14.0701 16.8217 13.5861 16.7168 13.1246C16.5293 12.2935 15.9931 11.8921 15.1383 11.8827C14.8795 11.8789 14.6115 11.8921 14.3621 11.954C13.5316 12.1603 13.1754 12.7869 13.0367 13.5636C12.9692 13.9369 12.9449 14.3215 12.943 14.7005C12.9336 16.5352 12.9392 18.37 12.9392 20.2047C12.9392 20.4974 12.9392 20.4993 12.6393 20.4993C11.6288 20.4993 10.6183 20.4936 9.60787 20.503C9.38478 20.5049 9.31354 20.4411 9.31354 20.2104C9.32104 16.5634 9.31729 12.9164 9.31917 9.26939C9.31917 8.97673 9.32104 8.97673 9.61912 8.97486C10.5921 8.97486 11.5651 8.98049 12.538 8.97111C12.7424 8.96923 12.8136 9.02739 12.808 9.23563C12.7949 9.64647 12.8042 10.0592 12.8042 10.47C13.1961 9.91662 13.6647 9.46262 14.2553 9.1437C14.9508 8.7685 15.695 8.60903 16.4806 8.70283C16.9455 8.75724 17.4217 8.78913 17.8697 8.91483C19.1726 9.28065 19.9131 10.2112 20.2037 11.485C20.3649 12.1941 20.4643 12.9295 20.4755 13.6555C20.5074 15.8411 20.4812 18.0286 20.4905 20.216Z" fill="#333D45"/>
</g>
</svg>
