<svg width="24" height="24" viewBox="0 0 24 24" fill="none" xmlns="http://www.w3.org/2000/svg">
<g id="Misc/lock">
<path id="lock" fill-rule="evenodd" clip-rule="evenodd" d="M17.5386 8.30767H16.6155V6.46151C16.6155 3.91382 14.5478 1.84613 12.0001 1.84613C9.4524 1.84613 7.38471 3.91382 7.38471 6.46151V8.30767H6.46163C5.44625 8.30767 4.61548 9.13844 4.61548 10.1538V19.3846C4.61548 20.4 5.44625 21.2307 6.46163 21.2307H17.5386C18.5539 21.2307 19.3847 20.4 19.3847 19.3846V10.1538C19.3847 9.13844 18.5539 8.30767 17.5386 8.30767ZM12.0001 16.6154C10.9847 16.6154 10.1539 15.7846 10.1539 14.7692C10.1539 13.7538 10.9847 12.9231 12.0001 12.9231C13.0155 12.9231 13.8462 13.7538 13.8462 14.7692C13.8462 15.7846 13.0155 16.6154 12.0001 16.6154ZM14.8616 8.30767H9.13856V6.46151C9.13856 4.88305 10.4216 3.59997 12.0001 3.59997C13.5786 3.59997 14.8616 4.88305 14.8616 6.46151V8.30767Z" fill="#333D45"/>
</g>
</svg>
