<svg width="24" height="24" viewBox="0 0 24 24" fill="none" xmlns="http://www.w3.org/2000/svg">
<g id="Status/pending">
<path id="pending" fill-rule="evenodd" clip-rule="evenodd" d="M11.9908 2.76929C6.89538 2.76929 2.76923 6.90467 2.76923 12.0001C2.76923 17.0954 6.89538 21.2308 11.9908 21.2308C17.0954 21.2308 21.2308 17.0954 21.2308 12.0001C21.2308 6.90467 17.0954 2.76929 11.9908 2.76929ZM12 19.3847C7.92 19.3847 4.61538 16.0801 4.61538 12.0001C4.61538 7.92006 7.92 4.61544 12 4.61544C16.08 4.61544 19.3846 7.92006 19.3846 12.0001C19.3846 16.0801 16.08 19.3847 12 19.3847ZM12.4615 7.38467H11.0769V12.9231L15.9231 15.8308L16.6154 14.6954L12.4615 12.2308V7.38467Z" fill="#333D45"/>
</g>
</svg>
