<svg width="24" height="24" viewBox="0 0 24 24" fill="none" xmlns="http://www.w3.org/2000/svg">
<g id="Misc/people">
<path id="Mask" fill-rule="evenodd" clip-rule="evenodd" d="M15.6923 11.0769C17.2247 11.0769 18.4523 9.83999 18.4523 8.30768C18.4523 6.77538 17.2247 5.53845 15.6923 5.53845C14.16 5.53845 12.9231 6.77538 12.9231 8.30768C12.9231 9.83999 14.16 11.0769 15.6923 11.0769ZM8.30773 11.0769C9.84004 11.0769 11.0677 9.83999 11.0677 8.30768C11.0677 6.77538 9.84004 5.53845 8.30773 5.53845C6.77542 5.53845 5.5385 6.77538 5.5385 8.30768C5.5385 9.83999 6.77542 11.0769 8.30773 11.0769ZM8.30773 12.9231C6.15696 12.9231 1.84619 14.0031 1.84619 16.1538V18.4615H14.7693V16.1538C14.7693 14.0031 10.4585 12.9231 8.30773 12.9231ZM15.6923 12.9231C15.4247 12.9231 15.12 12.9415 14.797 12.9692C15.8677 13.7446 16.6154 14.7877 16.6154 16.1538V18.4615H22.1539V16.1538C22.1539 14.0031 17.8431 12.9231 15.6923 12.9231Z" fill="#333D45"/>
</g>
</svg>
