<svg width="24" height="24" viewBox="0 0 24 24" fill="none" xmlns="http://www.w3.org/2000/svg">
<g id="Misc/people_outline">
<path id="people_outline" fill-rule="evenodd" clip-rule="evenodd" d="M16.1539 12.9231C15.0462 12.9231 13.32 13.2369 12 13.8461C10.68 13.2277 8.95388 12.9231 7.84619 12.9231C5.84311 12.9231 1.84619 13.92 1.84619 15.9231V18.4615H22.1539V15.9231C22.1539 13.92 18.157 12.9231 16.1539 12.9231ZM12.4616 17.0769H3.23081V15.9231C3.23081 15.4246 5.59388 14.3077 7.84619 14.3077C10.0985 14.3077 12.4616 15.4246 12.4616 15.9231V17.0769ZM20.7693 17.0769H13.8462V15.9231C13.8462 15.4985 13.6616 15.1292 13.3662 14.7969C14.1785 14.52 15.1754 14.3077 16.1539 14.3077C18.4062 14.3077 20.7693 15.4246 20.7693 15.9231V17.0769ZM7.84619 12C9.62773 12 11.077 10.5508 11.077 8.76922C11.077 6.98768 9.62773 5.53845 7.84619 5.53845C6.06465 5.53845 4.61542 6.98768 4.61542 8.76922C4.61542 10.5508 6.06465 12 7.84619 12ZM7.84619 6.92307C8.86158 6.92307 9.69234 7.75384 9.69234 8.76922C9.69234 9.78461 8.86158 10.6154 7.84619 10.6154C6.83081 10.6154 6.00004 9.78461 6.00004 8.76922C6.00004 7.75384 6.83081 6.92307 7.84619 6.92307ZM16.1539 12C17.9354 12 19.3847 10.5508 19.3847 8.76922C19.3847 6.98768 17.9354 5.53845 16.1539 5.53845C14.3723 5.53845 12.9231 6.98768 12.9231 8.76922C12.9231 10.5508 14.3723 12 16.1539 12ZM16.1539 6.92307C17.1693 6.92307 18 7.75384 18 8.76922C18 9.78461 17.1693 10.6154 16.1539 10.6154C15.1385 10.6154 14.3077 9.78461 14.3077 8.76922C14.3077 7.75384 15.1385 6.92307 16.1539 6.92307Z" fill="#333D45"/>
</g>
</svg>
