<svg width="24" height="24" viewBox="0 0 24 24" fill="none" xmlns="http://www.w3.org/2000/svg">
<g id="Misc/person_outline">
<path id="person_outline" fill-rule="evenodd" clip-rule="evenodd" d="M12.0001 6.3692C13.0709 6.3692 13.9386 7.23689 13.9386 8.30766C13.9386 9.37843 13.0709 10.2461 12.0001 10.2461C10.9293 10.2461 10.0616 9.37843 10.0616 8.30766C10.0616 7.23689 10.9293 6.3692 12.0001 6.3692ZM12.0001 14.6769C14.7416 14.6769 17.6309 16.0246 17.6309 16.6154V17.6307H6.36933V16.6154C6.36933 16.0246 9.25856 14.6769 12.0001 14.6769ZM12.0001 4.61536C9.96009 4.61536 8.30779 6.26766 8.30779 8.30766C8.30779 10.3477 9.96009 12 12.0001 12C14.0401 12 15.6924 10.3477 15.6924 8.30766C15.6924 6.26766 14.0401 4.61536 12.0001 4.61536ZM12.0001 12.923C9.53548 12.923 4.61548 14.16 4.61548 16.6154V19.3846H19.3847V16.6154C19.3847 14.16 14.4647 12.923 12.0001 12.923Z" fill="#333D45"/>
</g>
</svg>
