<svg width="24" height="24" viewBox="0 0 24 24" fill="none" xmlns="http://www.w3.org/2000/svg">
<g id="Misc/picture_as_pdf">
<path id="picture_as_pdf" fill-rule="evenodd" clip-rule="evenodd" d="M19.3847 2.76929H8.30775C7.29236 2.76929 6.46159 3.60006 6.46159 4.61544V15.6924C6.46159 16.7077 7.29236 17.5385 8.30775 17.5385H19.3847C20.4001 17.5385 21.2308 16.7077 21.2308 15.6924V4.61544C21.2308 3.60006 20.4001 2.76929 19.3847 2.76929ZM11.5385 9.69236C11.5385 10.4585 10.9201 11.077 10.1539 11.077H9.23083V12.9231H7.84621V7.38467H10.1539C10.9201 7.38467 11.5385 8.00313 11.5385 8.76929V9.69236ZM16.1539 11.5385C16.1539 12.3047 15.5354 12.9231 14.7693 12.9231H12.4616V7.38467H14.7693C15.5354 7.38467 16.1539 8.00313 16.1539 8.76929V11.5385ZM19.8462 8.76929H18.4616V9.69236H19.8462V11.077H18.4616V12.9231H17.077V7.38467H19.8462V8.76929ZM9.23083 9.69236H10.1539V8.76929H9.23083V9.69236ZM4.61544 6.46159H2.76929V19.3847C2.76929 20.4001 3.60006 21.2308 4.61544 21.2308H17.5385V19.3847H4.61544V6.46159ZM13.8462 11.5385H14.7693V8.76929H13.8462V11.5385Z" fill="#333D45"/>
</g>
</svg>
