<svg width="24" height="24" viewBox="0 0 24 24" fill="none" xmlns="http://www.w3.org/2000/svg">
<g id="Toggle/radio_button_checked">
<path id="radio_button_checked" fill-rule="evenodd" clip-rule="evenodd" d="M12.0001 7.38461C9.45236 7.38461 7.38467 9.4523 7.38467 12C7.38467 14.5477 9.45236 16.6154 12.0001 16.6154C14.5477 16.6154 16.6154 14.5477 16.6154 12C16.6154 9.4523 14.5477 7.38461 12.0001 7.38461ZM12.0001 2.76923C6.90467 2.76923 2.76929 6.90461 2.76929 12C2.76929 17.0954 6.90467 21.2308 12.0001 21.2308C17.0954 21.2308 21.2308 17.0954 21.2308 12C21.2308 6.90461 17.0954 2.76923 12.0001 2.76923ZM12.0001 19.3846C7.92006 19.3846 4.61544 16.08 4.61544 12C4.61544 7.91999 7.92006 4.61538 12.0001 4.61538C16.0801 4.61538 19.3847 7.91999 19.3847 12C19.3847 16.08 16.0801 19.3846 12.0001 19.3846Z" fill="#333D45"/>
</g>
</svg>
