<svg width="14" height="14" viewBox="0 0 14 14" fill="none" xmlns="http://www.w3.org/2000/svg">
	<g id="Actions/search">
		<path id="search" fill-rule="evenodd" clip-rule="evenodd" d="M9.69229 8.53966H9.0846L8.86921 8.33197C9.62306 7.45505 10.0769 6.31659 10.0769 5.07812C10.0769 2.31659 7.83844 0.078125 5.0769 0.078125C2.31537 0.078125 0.0769043 2.31659 0.0769043 5.07812C0.0769043 7.83966 2.31537 10.0781 5.0769 10.0781C6.31536 10.0781 7.45383 9.62428 8.33075 8.87043L8.53844 9.08582V9.69351L12.3846 13.532L13.5307 12.3858L9.69229 8.53966ZM5.0769 8.53966C3.16152 8.53966 1.61537 6.99351 1.61537 5.07812C1.61537 3.16274 3.16152 1.61659 5.0769 1.61659C6.99229 1.61659 8.53844 3.16274 8.53844 5.07812C8.53844 6.99351 6.99229 8.53966 5.0769 8.53966Z" fill="#333D45"/>
	</g>
</svg>