<svg width="24" height="24" viewBox="0 0 24 24" fill="none" xmlns="http://www.w3.org/2000/svg">
<g id="Actions/search">
<path id="search" fill-rule="evenodd" clip-rule="evenodd" d="M15.2308 13.8462H14.5016L14.2431 13.5969C15.1477 12.5446 15.6923 11.1785 15.6923 9.69232C15.6923 6.37848 13.0062 3.69232 9.69232 3.69232C6.37848 3.69232 3.69232 6.37848 3.69232 9.69232C3.69232 13.0062 6.37848 15.6923 9.69232 15.6923C11.1785 15.6923 12.5446 15.1477 13.5969 14.2431L13.8462 14.5016V15.2308L18.4616 19.8369L19.8369 18.4616L15.2308 13.8462ZM9.69232 13.8462C7.39386 13.8462 5.53848 11.9908 5.53848 9.69232C5.53848 7.39386 7.39386 5.53848 9.69232 5.53848C11.9908 5.53848 13.8462 7.39386 13.8462 9.69232C13.8462 11.9908 11.9908 13.8462 9.69232 13.8462Z" fill="#333D45"/>
</g>
</svg>
