<svg width="24" height="24" viewBox="0 0 24 24" fill="none" xmlns="http://www.w3.org/2000/svg">
<g id="Misc/settings">
<path id="settings" fill-rule="evenodd" clip-rule="evenodd" d="M18.6087 12.9046C18.6456 12.6092 18.6733 12.3138 18.6733 12C18.6733 11.6861 18.6456 11.3908 18.6087 11.0954L20.5564 9.5723C20.7317 9.43384 20.7779 9.18461 20.6671 8.98153L18.821 5.78769C18.7102 5.58461 18.461 5.51076 18.2579 5.58461L15.9594 6.50769C15.4794 6.13846 14.9625 5.83384 14.3994 5.60307L14.0487 3.15692C14.021 2.93538 13.8271 2.76923 13.5964 2.76923H9.90406C9.67329 2.76923 9.47944 2.93538 9.45175 3.15692L9.10098 5.60307C8.5379 5.83384 8.02098 6.14769 7.54098 6.50769L5.24252 5.58461C5.03021 5.50153 4.79021 5.58461 4.67944 5.78769L2.83329 8.98153C2.71329 9.18461 2.76867 9.43384 2.94405 9.5723L4.89175 11.0954C4.85482 11.3908 4.82713 11.6954 4.82713 12C4.82713 12.3046 4.85482 12.6092 4.89175 12.9046L2.94405 14.4277C2.76867 14.5661 2.72252 14.8154 2.83329 15.0185L4.67944 18.2123C4.79021 18.4154 5.03944 18.4892 5.24252 18.4154L7.54098 17.4923C8.02098 17.8615 8.5379 18.1661 9.10098 18.3969L9.45175 20.8431C9.47944 21.0646 9.67329 21.2308 9.90406 21.2308H13.5964C13.8271 21.2308 14.021 21.0646 14.0487 20.8431L14.3994 18.3969C14.9625 18.1661 15.4794 17.8523 15.9594 17.4923L18.2579 18.4154C18.4702 18.4985 18.7102 18.4154 18.821 18.2123L20.6671 15.0185C20.7779 14.8154 20.7317 14.5661 20.5564 14.4277L18.6087 12.9046ZM11.7502 15.2308C9.96868 15.2308 8.51945 13.7815 8.51945 12C8.51945 10.2185 9.96868 8.76923 11.7502 8.76923C13.5318 8.76923 14.981 10.2185 14.981 12C14.981 13.7815 13.5318 15.2308 11.7502 15.2308Z" fill="#333D45"/>
</g>
</svg>
