<svg width="24" height="24" viewBox="0 0 24 24" fill="none" xmlns="http://www.w3.org/2000/svg">
<g id="Social/twitter">
<path id="twitter" fill-rule="evenodd" clip-rule="evenodd" d="M3 24H21C22.656 24 24 22.656 24 21V3C24 1.344 22.656 0 21 0H3C1.344 0 0 1.344 0 3V21C0 22.656 1.344 24 3 24ZM17.97 9.342C17.97 13.404 14.874 18.096 9.21601 18.096C7.48201 18.096 5.86201 17.586 4.50601 16.722C4.74601 16.752 4.99201 16.764 5.23801 16.764C6.67801 16.764 8.00401 16.272 9.06001 15.444C7.71601 15.42 6.57601 14.532 6.18601 13.308C6.37201 13.344 6.56401 13.362 6.76201 13.362C7.04401 13.362 7.31401 13.326 7.57201 13.254C6.16801 12.972 5.10601 11.724 5.10601 10.236V10.194C5.52001 10.422 5.99401 10.56 6.49801 10.578C5.67601 10.026 5.13001 9.084 5.13001 8.016C5.13001 7.452 5.28001 6.924 5.54401 6.468C7.06201 8.328 9.33001 9.558 11.886 9.684C11.838 9.456 11.808 9.222 11.808 8.982C11.808 7.284 13.188 5.904 14.886 5.904C15.768 5.904 16.566 6.276 17.13 6.876C17.832 6.738 18.492 6.486 19.086 6.132C18.852 6.852 18.366 7.458 17.73 7.836C18.354 7.758 18.948 7.596 19.5 7.35C19.086 7.968 18.564 8.514 17.964 8.946C17.97 9.078 17.97 9.21 17.97 9.342Z" fill="#333D45"/>
</g>
</svg>
