<svg width="24" height="24" viewBox="0 0 24 24" fill="none" xmlns="http://www.w3.org/2000/svg">
<g id="Actions/visibility">
<path id="visibility" fill-rule="evenodd" clip-rule="evenodd" d="M12 5.53845C7.38465 5.53845 3.44311 8.40922 1.84619 12.4615C3.44311 16.5138 7.38465 19.3846 12 19.3846C16.6154 19.3846 20.557 16.5138 22.1539 12.4615C20.557 8.40922 16.6154 5.53845 12 5.53845ZM12 17.0769C9.45235 17.0769 7.38465 15.0092 7.38465 12.4615C7.38465 9.91384 9.45235 7.84614 12 7.84614C14.5477 7.84614 16.6154 9.91384 16.6154 12.4615C16.6154 15.0092 14.5477 17.0769 12 17.0769ZM12 9.6923C10.4677 9.6923 9.23081 10.9292 9.23081 12.4615C9.23081 13.9938 10.4677 15.2308 12 15.2308C13.5323 15.2308 14.7693 13.9938 14.7693 12.4615C14.7693 10.9292 13.5323 9.6923 12 9.6923Z" fill="#333D45"/>
</g>
</svg>
